<?xml version="1.0" encoding="iso-8859-1"?>
<!-- Generator: Adobe Illustrator 19.0.0, SVG Export Plug-In . SVG Version: 6.00 Build 0)  -->
<svg version="1.1" id="Capa_1" xmlns="http://www.w3.org/2000/svg" xmlns:xlink="http://www.w3.org/1999/xlink" x="0px" y="0px"
	 viewBox="0 0 120 120" fill="#000" stroke-width="=0.1" stroke="#fff" width="2" height="2" style="enable-background:new 0 0 120 120;" xml:space="preserve">
<g id="_x30_404-knife">
	<g>
		<path style="fill-rule:evenodd;clip-rule:evenodd;" d="M117.424,105.476c-1.253-1.14-2.516-2.269-3.705-3.473
			c-1.529-0.865-2.554-2.234-3.706-3.475c-0.933-0.226-1.304-1.012-1.853-1.621c-0.835-0.4-1.355-1.115-2.085-1.623
			c-0.848-1.312-1.83-2.491-3.011-3.473c-0.16-0.92-1.019-1.143-1.389-1.854c-0.464-0.693-0.87-1.445-1.622-1.853
			c-0.104-0.975-1.095-1.066-1.389-1.853c-0.758-0.399-1.094-1.222-1.853-1.621c-0.745-1.494-2.222-2.256-3.011-3.705
			c-4.518-4.361-9.247-8.51-13.896-12.74c-0.443-0.637-0.983-1.178-1.621-1.621c-0.481-0.6-1.042-1.119-1.622-1.621
			c-0.943-1.295-2.297-2.178-3.242-3.473c-2.084-2.395-4.562-4.395-6.485-6.947c-4.503-4.453-8.882-9.031-13.434-13.436
			c-0.658-0.424-1.852-0.326-2.547-0.693c-4.869-7.02-10.584-13.195-16.907-18.76c-3.123-2.822-6.359-5.53-9.728-8.108
			c-1.674-1.338-3.214-2.808-5.096-3.937c-0.6-0.867-1.819-1.114-2.316-2.085c-1.212-0.408-1.552-1.69-3.242-1.621
			c-0.095-0.396-0.299,0.049-0.694,0C8.786,6.258,6.24,8.265,3.937,10.517c-0.687,1.706-1.911,2.877-2.316,4.865
			C0.955,17.109,0.169,18.717,0,20.941v2.316c0.533,1.164,0.769,2.627,1.39,3.705c2.341,2.709,8.213,2.902,12.738,2.085
			c1.792,6.237,4.962,11.096,9.033,15.054c1.034,0.588,1.969,1.274,2.779,2.085c1.876,0.903,3.816,1.743,5.558,2.778
			c0.323,1.762,0.992,3.178,1.158,5.096c-0.866,2.144-3.015,3.007-3.011,6.023c0.291,1.021,0.287,2.339,1.159,2.778
			c0.844,0.469,1.185,1.441,1.621,2.316c0.923,1.702,2.179,3.07,3.011,4.863c1.292,1.334,2.243,3.008,3.475,4.4
			c1.156,1.469,2.481,2.77,3.706,4.17c5.071,5.428,10.191,10.807,15.98,15.518c5.434,5.066,11.877,9.122,18.761,12.737
			c1.851,0.775,3.732,1.517,5.558,2.316c1.161,0.153,1.746,0.88,3.011,0.927c0.707,0.605,2.072,0.553,2.779,1.158
			c4.465,0.785,7.922,2.576,12.738,3.012h4.168c1.518-0.413,3.403-0.458,4.865-0.928c1.745-0.26,3.628-0.387,4.863-1.156
			c2.315,0.469,4.173-0.103,4.633-2.086C120.25,107.437,118.351,106.945,117.424,105.476z M32.425,43.638
			c-2.247-1.073-4.403-2.238-6.253-3.706c-3.731-2.908-5.953-7.326-8.337-11.581c-0.415-1.746-0.649-3.675-2.085-4.4
			c-1.81-0.605-3.789,0.29-5.79,0.232c-1.035-0.51-1.671-1.418-2.316-2.316c-0.127-0.336,0.271-1.197-0.232-1.158
			c-0.03-2.855,0.81-5.119,0.464-7.643c1.574-1.281,2.769-2.944,5.79-2.78c2.044,0.581,2.479,2.773,4.169,3.708
			c1.369,1.253,2.812,2.435,4.168,3.705c2.943,2.307,5.597,4.902,8.569,7.18c5.412,5.087,11.326,9.672,15.518,15.98
			c-0.488,1.443-2.325,1.535-3.011,2.779c-1.316,0.535-1.871,1.836-3.011,2.548C37.498,45.359,34.742,44.719,32.425,43.638z
			 M108.855,108.951c-0.195,0.499-1.477-0.087-1.621,0.463c-1.071-0.009-0.699-1.463-1.622-1.621
			c-0.266-0.813-1.313-0.848-1.621-1.621c-1.387-0.542-2.434-1.426-3.938-1.852c-0.715-0.996-3.075-1.576-3.938-0.465
			c-0.112,2.198,1.078,3.094,2.548,3.706c0.534,0.549,1.42,0.741,2.085,1.157c0.441,0.1,0.581,0.5,1.157,0.464
			c-0.092,0.556,1.055-0.128,0.695,0.695c-3.453,0.21-5.815-0.669-8.801-0.927c-1.47-0.77-3.046-1.432-4.864-1.853
			c-1.193-0.969-3.196-1.125-4.401-2.084c-3.228-1.172-5.903-2.896-8.8-4.399c-5.396-3.329-10.69-6.757-15.055-11.118
			c-0.933-0.225-1.304-1.011-1.853-1.621c-0.854-0.227-1.147-1.014-1.853-1.389c-0.89-1.273-2.204-2.119-3.243-3.242
			c-2.385-2.016-4.347-4.454-6.485-6.718c-4.483-4.241-8.198-9.251-11.812-14.358c0.126-0.879,0.964-1.045,1.39-1.623
			c0.183-0.742,0.841-1.012,1.158-1.621c0.924-1.004,1.627-2.233,2.779-3.01c0.825,0.179,0.873,1.135,1.389,1.621
			c0.558,0.446,0.769,1.238,1.39,1.621c0.157,0.846,0.877,1.129,1.158,1.852c0.558,0.446,0.768,1.238,1.389,1.62
			c1.606,2.409,3.11,4.92,5.096,6.949c0.981,1.025,1.872,2.143,3.011,3.011c0.739,1.269,2.249,1.767,3.011,3.013
			c3.41,2.609,5.726,6.315,9.264,8.799c0.992,1.017,1.983,2.031,3.243,2.781c0.857,1.15,2.667,1.348,3.473,2.546
			c1.24,0.769,2.357,1.659,3.474,2.548c1.214,0.794,2.141,1.874,3.475,2.549c0.295,0.709,1.326,0.68,1.621,1.389
			c0.864,0.14,0.943,1.065,1.853,1.158c0.875,1.133,2.296,1.719,3.243,2.779c1.189,0.358,2.828,1.934,4.169,0.695
			c-0.332-2.834-2.78-3.551-4.169-5.328c-1.133-0.41-1.626-1.463-2.779-1.853c-0.546-0.997-1.929-1.159-2.547-2.085
			c-2.024-1.062-3.464-2.712-5.559-3.705c-1.653-1.435-4.057-2.119-5.558-3.705c-3.563-2.613-6.49-5.864-9.728-8.801
			c-0.769-0.767-1.536-1.564-2.315-2.316c-2.237-2.154-4.602-4.596-6.948-6.947c-0.519-1.258-1.333-2.221-2.084-3.244
			c-0.554-1.145-1.473-1.924-2.085-3.01c-1.616-1.781-2.938-3.857-4.4-5.791c0.409-1.289,1.715-1.681,2.315-2.779
			c1.146-0.553,1.776-1.621,2.779-2.317c0.395-0.455,0.541-1.158,1.158-1.389c0.123-0.188,0.242-0.376,0.232-0.696
			c0.136,0.044,0.333-0.055,0.462,0c1.87,0.8,3.041,1.668,3.938,3.243c0.765,0.471,1.22,1.25,1.853,1.854
			c0.467,0.689,1.173,1.142,1.621,1.852c2.301,2.407,4.686,4.733,6.949,7.18c1.345,0.586,2.217,1.644,3.474,2.316
			c3.404,4.007,7.335,7.486,10.886,11.349c1.869,1.838,3.327,4.084,5.326,5.79c0.689,1.165,1.582,2.124,2.547,3.012
			c0.594,1.182,1.807,1.743,2.317,3.011c3.702,3.709,6.862,7.959,10.654,11.58c1.605,2.1,3.86,3.551,5.558,5.559
			c1.017,0.834,1.923,1.782,3.011,2.547c0.298,0.631,1.187,0.666,1.39,1.39c0.659,0.19,1.175,0.522,1.389,1.157
			C109.962,108.668,109.728,109.13,108.855,108.951z M11.812,14.919c-0.141,0.013-0.274,0.034-0.231,0.231
			c-0.776,0.152-0.866,0.986-1.39,1.39c-0.104,1.495,0.065,2.714,0.463,3.706c0.894,0.652,1.667,1.42,3.011,1.621
			c1.303-0.24,2.173-0.914,2.779-1.854C16.733,16.481,15.187,14.787,11.812,14.919z M28.024,26.035
			c-2.938-1.394-5.048,0.283-5.096,2.781c0.04,1.658,1.025,2.371,1.621,3.473c1.267,0.617,3.663,0.692,4.633-0.232
			C30.256,30.025,29.386,27.052,28.024,26.035z M38.91,36.922c-1.59-0.75-3.581-0.805-4.633,0.463
			c-0.856,3.002,0.456,5.677,3.243,5.789C40.56,42.969,40.974,38.512,38.91,36.922z"/>
	</g>
</g>
<g>
</g>
<g>
</g>
<g>
</g>
<g>
</g>
<g>
</g>
<g>
</g>
<g>
</g>
<g>
</g>
<g>
</g>
<g>
</g>
<g>
</g>
<g>
</g>
<g>
</g>
<g>
</g>
<g>
</g>
</svg>
