<svg xmlns="http://www.w3.org/2000/svg" fill="#000" stroke="#fff" stroke-width="0.4" viewBox="0 0 64 64"><g id="lined_icons" data-name="lined icons"><path d="M32.13,28.6543a6.3574,6.3574,0,1,1,6.3564-6.5137h0a6.3657,6.3657,0,0,1-6.1987,6.5117C32.2349,28.6533,32.1821,28.6543,32.13,28.6543ZM32.1323,17.94c-.0361,0-.0718.0009-.1079.0019a4.3567,4.3567,0,0,0-4.249,4.4619,4.3573,4.3573,0,0,0,8.7119-.2138h0A4.3634,4.3634,0,0,0,32.1323,17.94Z"/><path d="M30.6309,13.1738c-3.0972,0-6.31-.9394-6.3633-3.0771-.0152-.6.2553-1.7315,2.229-2.5674a12.2906,12.2906,0,0,1,4.3525-.832,12.2585,12.2585,0,0,1,4.3882.6181c2.0117.7383,2.3369,1.8555,2.3516,2.4551S37.334,11.502,35.36,12.3379a12.2908,12.2908,0,0,1-4.3526.832C30.8823,13.1729,30.7563,13.1738,30.6309,13.1738Zm.6128-4.4814c-.1133,0-.2281.0019-.3453.0049-2.9511.0713-4.5312,1.0224-4.6338,1.372.1182.3008,1.7457,1.1768,4.6939,1.1006,2.8926-.07,4.4678-.9853,4.6255-1.3506C35.4155,9.4766,33.9189,8.6924,31.2437,8.6924Zm4.3491,1.1484h0Z"/><path d="M32.5718,57.3076c-.1543,0-.3086-.0019-.4624-.0049a32.4826,32.4826,0,0,1-13.8423-3.5722,1,1,0,0,1-.5347-1.0909l3.3028-16.5449c.1684-.8642.3012-1.7373.435-2.6113.0674-.4414.1348-.8838.207-1.3262a10.721,10.721,0,0,1,5.4634-7.8808,1,1,0,1,1,.9453,1.7617,8.63,8.63,0,0,0-4.4345,6.4375c-.0713.4394-.1377.875-.2041,1.31-.1377.9013-.2754,1.8007-.45,2.6962L19.8447,52.2725a30.2114,30.2114,0,0,0,12.3057,3.03A27.02,27.02,0,0,0,44.416,52.2744L41.2642,36.4873c-.1758-.9014-.3135-1.8008-.4512-2.7021-.0664-.4346-.1328-.87-.2036-1.3057a9.3773,9.3773,0,0,0-.9478-2.9053,8.3829,8.3829,0,0,0-3.477-3.5361,1,1,0,1,1,.9453-1.7617,10.3669,10.3669,0,0,1,4.3037,4.37,11.372,11.372,0,0,1,1.15,3.5146c.0713.4385.1387.8809.206,1.3223.1338.874.2666,1.7471.4361,2.6152L46.5278,52.64a1,1,0,0,1-.5346,1.0909A30.0552,30.0552,0,0,1,32.5718,57.3076Z"/><path d="M47.7012,41.84A10.0645,10.0645,0,0,1,42.23,39.8359a1,1,0,0,1,1.1162-1.66c2.0229,1.36,3.7622,1.8887,5.1636,1.5781a4.3869,4.3869,0,0,0,2.7392-2.23,12.1053,12.1053,0,0,1,5.628-4.7959c2.25-.98,3.1806-3.0781,2.7656-6.2344a12.6839,12.6839,0,0,1,.9536-6.9765c1.3389-2.9072-.9746-6.2012-2.3848-7.8262-6.4682,13.5274-16.8154,18.14-17.2671,18.3359a1,1,0,0,1-.7964-1.8349c.107-.0469,10.7828-4.8379,16.8541-18.6612A.9995.9995,0,0,1,58.59,9.1934c.2583.2343,6.2911,5.8027,3.8228,11.16a10.7023,10.7023,0,0,0-.7876,5.8789c.5308,4.0313-.8716,6.9893-3.9487,8.33a10.1181,10.1181,0,0,0-4.7129,3.9912,6.2931,6.2931,0,0,1-4.0191,3.1524A5.6837,5.6837,0,0,1,47.7012,41.84Z"/><path d="M16.2988,41.84a5.6837,5.6837,0,0,1-1.2431-.1337,6.2951,6.2951,0,0,1-4.02-3.1524,10.1132,10.1132,0,0,0-4.7129-3.9912c-3.0766-1.3408-4.479-4.2988-3.9487-8.33a10.6977,10.6977,0,0,0-.7871-5.8789C-.8809,14.9961,5.1519,9.4277,5.41,9.1934a.9995.9995,0,0,1,1.5878.3378c6.0713,13.8233,16.7471,18.6143,16.8541,18.6612a1,1,0,0,1-.7964,1.8349c-.4517-.1962-10.7989-4.8085-17.2671-18.3359-1.41,1.625-3.7237,4.919-2.3848,7.8262a12.6839,12.6839,0,0,1,.9536,6.9765c-.415,3.1563.5152,5.2539,2.7652,6.2344a12.1007,12.1007,0,0,1,5.6279,4.7959,4.389,4.389,0,0,0,2.74,2.23c1.4.31,3.1407-.2178,5.1636-1.5781a1,1,0,0,1,1.1162,1.66A10.0631,10.0631,0,0,1,16.2988,41.84Z"/></g></svg>